<?xml version="1.0" encoding="utf-8"?>
<!-- Generator: Adobe Illustrator 27.5.0, SVG Export Plug-In . SVG Version: 6.00 Build 0)  -->
<svg version="1.1" xmlns="http://www.w3.org/2000/svg" xmlns:xlink="http://www.w3.org/1999/xlink" x="0px" y="0px"
	 viewBox="0 0 500 500" style="enable-background:new 0 0 500 500;" xml:space="preserve">
<g id="Background_Complete">
	<g>
		<rect y="382.398" style="fill:#EBEBEB;" width="500" height="0.25"/>
		<rect x="52.459" y="391.922" style="fill:#EBEBEB;" width="33.122" height="0.25"/>
		<rect x="145.333" y="389.208" style="fill:#EBEBEB;" width="34.5" height="0.25"/>
		<rect x="76.082" y="396.75" style="fill:#EBEBEB;" width="55.418" height="0.25"/>
		<rect x="405.64" y="397.666" style="fill:#EBEBEB;" width="43.193" height="0.25"/>
		<rect x="370.43" y="391.416" style="fill:#EBEBEB;" width="22.903" height="0.25"/>
		<rect x="195.633" y="395.43" style="fill:#EBEBEB;" width="93.676" height="0.25"/>
		<path style="fill:#EBEBEB;" d="M237.014,337.799H43.915c-3.147,0-5.708-2.561-5.708-5.708V60.66c0-3.147,2.561-5.708,5.708-5.708
			h193.099c3.146,0,5.707,2.561,5.707,5.708v271.432C242.721,335.239,240.16,337.799,237.014,337.799z M43.915,55.202
			c-3.01,0-5.458,2.448-5.458,5.458v271.432c0,3.01,2.448,5.458,5.458,5.458h193.099c3.009,0,5.457-2.448,5.457-5.458V60.66
			c0-3.009-2.448-5.458-5.457-5.458H43.915z"/>
		<path style="fill:#EBEBEB;" d="M453.31,337.799H260.212c-3.147,0-5.707-2.561-5.707-5.708V60.66c0-3.147,2.561-5.708,5.707-5.708
			H453.31c3.148,0,5.708,2.561,5.708,5.708v271.432C459.019,335.239,456.458,337.799,453.31,337.799z M260.212,55.202
			c-3.009,0-5.457,2.448-5.457,5.458v271.432c0,3.01,2.448,5.458,5.457,5.458H453.31c3.01,0,5.458-2.448,5.458-5.458V60.66
			c0-3.009-2.448-5.458-5.458-5.458H260.212z"/>
	</g>
	<g>
		<g>
			
				<rect x="132.277" y="256.923" transform="matrix(-1 -1.224647e-16 1.224647e-16 -1 279.7618 572.7758)" style="fill:#E6E6E6;" width="15.207" height="58.93"/>
			<polygon style="fill:#F0F0F0;" points="91.048,315.853 141.517,315.853 149.139,246.88 98.669,246.88 			"/>
			<polygon style="fill:#F5F5F5;" points="85.581,315.853 137.713,315.853 145.335,246.88 93.203,246.88 			"/>
			<polygon style="fill:#FFFFFF;" points="133.946,310.418 140.367,252.315 96.97,252.315 90.549,310.418 			"/>
			<path style="fill:#F5F5F5;" d="M124.983,296.334l0.262-2.368c1.611-14.577-7.49-27.568-19.313-27.568l0,0l-0.262,2.368
				C104.06,283.343,113.161,296.334,124.983,296.334L124.983,296.334z"/>
		</g>
		<g>
			
				<rect x="107.726" y="92.4" transform="matrix(-1 -1.224647e-16 1.224647e-16 -1 514.5056 293.2621)" style="fill:#E6E6E6;" width="299.054" height="108.462"/>
			
				<rect x="102.285" y="92.4" transform="matrix(-1 -1.224647e-16 1.224647e-16 -1 506.5221 293.2621)" style="fill:#F0F0F0;" width="301.952" height="108.462"/>
			
				<rect x="107.726" y="200.862" transform="matrix(-1 -1.224647e-16 1.224647e-16 -1 514.5056 411.8348)" style="fill:#E6E6E6;" width="299.054" height="10.111"/>
			
				<rect x="93.22" y="200.862" transform="matrix(-1 -1.224647e-16 1.224647e-16 -1 488.393 411.8348)" style="fill:#F0F0F0;" width="301.952" height="10.111"/>
			
				<rect x="206.648" y="3.272" transform="matrix(-1.836970e-16 1 -1 -1.836970e-16 399.8922 -106.63)" style="fill:#FAFAFA;" width="93.227" height="286.717"/>
			<polygon style="fill:#FFFFFF;" points="365.961,193.245 328.691,100.018 295.975,100.018 333.245,193.245 			"/>
			<polygon style="fill:#FFFFFF;" points="204.436,193.245 167.167,100.018 134.45,100.018 171.72,193.245 			"/>
			<polygon style="fill:#FFFFFF;" points="326.217,193.245 288.947,100.018 276.192,100.018 313.462,193.245 			"/>
			
				<rect x="63.773" y="146.147" transform="matrix(-1.836970e-16 1 -1 -1.836970e-16 257.0172 36.245)" style="fill:#E6E6E6;" width="93.227" height="0.967"/>
		</g>
		<g>
			<g>
				
					<rect x="57.381" y="315.853" transform="matrix(-1 -1.224647e-16 1.224647e-16 -1 159.5995 698.2509)" style="fill:#E6E6E6;" width="44.839" height="66.545"/>
				<polygon style="fill:#F0F0F0;" points="61.891,382.398 57.381,382.398 57.381,369.569 66.619,369.569 				"/>
				
					<rect x="183.05" y="315.853" transform="matrix(-1 -1.224647e-16 1.224647e-16 -1 410.9389 698.2509)" style="fill:#E6E6E6;" width="44.839" height="66.545"/>
				
					<rect x="57.381" y="315.853" transform="matrix(-1 -1.224647e-16 1.224647e-16 -1 244.3666 690.3786)" style="fill:#F0F0F0;" width="129.606" height="58.673"/>
				<polygon style="fill:#F0F0F0;" points="182.476,382.398 186.986,382.398 186.986,369.569 177.747,369.569 				"/>
				
					<rect x="60.879" y="319.523" transform="matrix(-1 -1.224647e-16 1.224647e-16 -1 244.3666 662.7206)" style="fill:#E6E6E6;" width="122.608" height="23.675"/>
				<path style="fill:#F0F0F0;" d="M114.006,334.957h16.353c7.103,0,13.894-2.921,18.779-8.077l0,0H95.227l0,0
					C100.112,332.036,106.903,334.957,114.006,334.957z"/>
				
					<rect x="60.879" y="347.024" transform="matrix(-1 -1.224647e-16 1.224647e-16 -1 244.3666 717.7236)" style="fill:#E6E6E6;" width="122.608" height="23.675"/>
				<path style="fill:#F0F0F0;" d="M114.006,362.459h16.353c7.103,0,13.894-2.921,18.779-8.077l0,0H95.227l0,0
					C100.112,359.538,106.903,362.459,114.006,362.459z"/>
			</g>
		</g>
		<g>
			<g>
				<path style="fill:#F0F0F0;" d="M344.919,288.121c-0.091-0.44-0.475-0.755-0.93-0.755h-11.343h-13.33h-11.342
					c-0.454,0-0.839,0.314-0.93,0.755l-12.77,94.277h1.936l12.539-93.138h34.463l12.539,93.138h1.936L344.919,288.121z"/>
				<path style="fill:#F0F0F0;" d="M414.642,288.121c-0.091-0.44-0.475-0.755-0.93-0.755H402.37h-13.33h-11.343
					c-0.454,0-0.839,0.314-0.93,0.755l-12.77,94.277h1.936l12.539-93.138h34.463l12.539,93.138h1.936L414.642,288.121z"/>
				<path style="fill:#E0E0E0;" d="M415.667,280.169H302.41c-5.412,0-9.8,2.605-9.8,5.82v0.2c0,1.172,1.6,2.122,3.574,2.122h125.71
					c1.974,0,3.574-0.95,3.574-2.122v-0.2C425.467,282.775,421.08,280.169,415.667,280.169z"/>
			</g>
			<g>
				<polygon style="fill:#E6E6E6;" points="422.602,233.501 347.712,233.501 336.858,277.725 411.748,277.725 				"/>
				<polygon style="fill:#E6E6E6;" points="411.748,277.725 411.445,280.169 336.551,280.169 336.854,277.725 				"/>
				<polygon style="fill:#F0F0F0;" points="420.297,233.501 345.406,233.501 334.552,277.725 409.443,277.725 				"/>
				<polygon style="fill:#FFFFFF;" points="407.859,275.704 417.721,235.522 346.991,235.522 337.128,275.704 				"/>
				<polygon style="fill:#F0F0F0;" points="389.929,277.725 389.626,280.169 307.157,280.169 307.46,277.725 				"/>
			</g>
		</g>
		<g>
			<path style="fill:#E6E6E6;" d="M178.777,313.139h1.158c-0.012-2.386,0.006-8.439,0.122-22.312
				c0.208-25.144,0.608-26.677,0.608-26.677l-2.758,11.608C176.157,288.611,178.412,301.527,178.777,313.139z"/>
			<path style="fill:#E6E6E6;" d="M176.486,274.028c-3.97-4.731-12.451-6.109-21.135-7.286c-3.409-0.462,8.959,7.328,15.004,12.862
				c4.696,4.298,7.699,5.486,8.988,9.77C180.016,284.032,179.907,278.105,176.486,274.028z"/>
			<path style="fill:#E6E6E6;" d="M181.752,282.484c3.969-4.731,12.451-6.109,21.135-7.286c3.41-0.462-8.959,7.328-15.004,12.862
				c-4.697,4.298-7.699,5.486-8.988,9.77C178.223,292.488,178.332,286.561,181.752,282.484z"/>
			<path style="fill:#E6E6E6;" d="M180.053,263.038c2.976-5.655,10.466-10.979,18.87-12.999c3.299-0.793-7.643,10.442-11.802,17.687
				c-3.231,5.628-7.516,12.239-8.182,16.988C177.933,275.306,177.077,268.693,180.053,263.038z"/>
			<g>
				<path style="fill:#F0F0F0;" d="M179.701,315.853L179.701,315.853c-3.546,0-6.476-1.777-6.68-4.051l-0.591-3.885h14.541
					l-0.591,3.885C186.177,314.076,183.247,315.853,179.701,315.853z"/>
				<polygon style="fill:#F0F0F0;" points="187.913,309.411 171.489,309.411 171.018,305.083 188.384,305.083 				"/>
			</g>
		</g>
	</g>
</g>
<g id="Background_Simple" style="display:none;">
	<g style="display:inline;">
		<path style="fill:#407BFF;" d="M352.948,266.628c-21.574,8.911-17.675,24.731-31.611,38.433
			c-18.216,17.911-44.045,9.384-67.667,15.377c-19.088,4.842-26.888,17.072-43.11,25.374c-22.271,11.398-40.109,4.642-63.121-3.5
			c-42.259-14.952-79.558-20.981-65.512-67.402c3.087-10.203,9.09-17.349,8.14-28.665c-0.848-10.094-8.431-19.139-9.391-29.083
			c-2.394-24.818,20.85-33.449,28.065-53.824c6.199-17.506-3.126-26.727,22.26-35.548c19.742-6.86,44.813-4.313,65.736-9.718
			c22.316-5.765,39.992-15.834,63.31-5.242c17.367,7.889,28.235,21.834,47.393,28.552c27.322,9.58,96.423,3.745,89.115,41.015
			c-1.538,7.843-12.971,13.339-14.967,21.891c-1.77,7.585,1.814,15.41,1.249,23.023
			C381.482,245.573,372.913,258.382,352.948,266.628z"/>
		<path style="opacity:0.9;fill:#FFFFFF;" d="M352.948,266.628c-21.574,8.911-17.675,24.731-31.611,38.433
			c-18.216,17.911-44.045,9.384-67.667,15.377c-19.088,4.842-26.888,17.072-43.11,25.374c-22.271,11.398-40.109,4.642-63.121-3.5
			c-42.259-14.952-79.558-20.981-65.512-67.402c3.087-10.203,9.09-17.349,8.14-28.665c-0.848-10.094-8.431-19.139-9.391-29.083
			c-2.394-24.818,20.85-33.449,28.065-53.824c6.199-17.506-3.126-26.727,22.26-35.548c19.742-6.86,44.813-4.313,65.736-9.718
			c22.316-5.765,39.992-15.834,63.31-5.242c17.367,7.889,28.235,21.834,47.393,28.552c27.322,9.58,96.423,3.745,89.115,41.015
			c-1.538,7.843-12.971,13.339-14.967,21.891c-1.77,7.585,1.814,15.41,1.249,23.023
			C381.482,245.573,372.913,258.382,352.948,266.628z"/>
	</g>
</g>
<g id="Shadow_1_">
	<ellipse id="_x3C_Path_x3E__78_" style="fill:#F5F5F5;" cx="250" cy="416.238" rx="193.889" ry="11.323"/>
</g>
<g id="Character_1_">
	<g>
		<g>
			<polygon style="fill:#FFB573;" points="311.281,399.98 303.677,398.123 305.954,380.02 313.558,381.877 			"/>
			<polygon style="fill:#FFB573;" points="377.522,408.246 369.695,408.246 363.596,390.119 371.424,390.119 			"/>
			<path style="fill:#263238;" d="M368.65,407.339l9.543,0c0.32,0,0.597,0.222,0.666,0.535l1.546,6.958
				c0.16,0.722-0.407,1.405-1.146,1.392c-3.07-0.053-5.311-0.233-9.178-0.233c-2.379,0-9.554,0.247-12.839,0.247
				c-3.213,0-3.715-3.249-2.37-3.543c6.031-1.319,10.576-3.139,12.507-4.874C367.728,407.507,368.182,407.339,368.65,407.339z"/>
			<path style="fill:#263238;" d="M303.946,397.256l8.304,2.028c0.311,0.076,0.527,0.358,0.521,0.677l-0.148,7.126
				c-0.015,0.739-0.71,1.273-1.424,1.085c-2.983-0.782-7.269-2.015-11.034-2.934c-4.402-1.075-8.263-1.763-13.426-3.024
				c-3.122-0.762-3.217-4.13-1.841-4.096c6.266,0.151,11.157,1.198,17.072-0.716C302.612,397.193,303.289,397.096,303.946,397.256z"
				/>
			<path style="fill:#FFB573;" d="M341.891,172.94c-0.545,1.62-1.057,3.019-1.651,4.489c-0.579,1.45-1.182,2.888-1.808,4.318
				c-1.249,2.861-2.645,5.667-4.162,8.439c-1.537,2.761-3.187,5.499-5.098,8.143c-1.92,2.639-4.021,5.243-6.663,7.613
				c-0.665,0.591-1.343,1.175-2.091,1.727c-0.397,0.286-0.687,0.53-1.174,0.844c-0.454,0.307-0.943,0.589-1.442,0.857
				c-2.005,1.077-4.446,1.679-6.757,1.631c-2.32-0.032-4.437-0.617-6.243-1.417c-1.81-0.815-3.362-1.826-4.758-2.905
				c-2.77-2.185-4.966-4.646-6.901-7.214c-0.976-1.277-1.846-2.612-2.682-3.956c-0.843-1.361-1.598-2.677-2.337-4.196l4.992-3.102
				c0.867,1,1.852,2.118,2.814,3.137c0.974,1.034,1.996,2.015,3.005,2.972c2.038,1.888,4.169,3.612,6.309,4.848
				c2.118,1.253,4.264,1.868,5.594,1.659c0.679-0.098,1.202-0.323,1.8-0.714c0.147-0.107,0.298-0.21,0.45-0.342
				c0.135-0.101,0.407-0.352,0.605-0.517c0.432-0.364,0.858-0.792,1.28-1.224c3.397-3.559,6.323-8.411,8.874-13.394
				c1.293-2.502,2.477-5.093,3.637-7.701c0.575-1.306,1.13-2.624,1.662-3.948c0.516-1.305,1.076-2.695,1.52-3.896L341.891,172.94z"
				/>
			<path style="fill:#407BFF;" d="M345.066,169.091c1.678,7.293-14.32,25.946-14.32,25.946l-14.379-10.516
				c0,0,4.991-9.707,11.412-16.952C334.373,160.13,343.224,161.088,345.066,169.091z"/>
			<path style="opacity:0.2;" d="M328.977,181.322c-1.601,3.105-2.922,6.478-3.975,9.519l5.747,4.2c0,0,9.497-11.076,13.085-19.498
				C339.505,171.826,332.759,173.942,328.977,181.322z"/>
			<path style="fill:#FFB573;" d="M293.904,189.28l-3.651-4.885l-6.189,7.298c0,0,3.742,3.76,8.387,2.286L293.904,189.28z"/>
			<polygon style="fill:#FFB573;" points="282.1,181.704 280.047,190.081 284.064,191.692 290.252,184.394 			"/>
			<g>
				<polygon style="opacity:0.2;" points="305.955,380.025 304.78,389.356 312.387,391.214 313.562,381.883 				"/>
				<polygon style="opacity:0.2;" points="371.427,390.124 363.597,390.124 366.744,399.467 374.575,399.467 				"/>
			</g>
			<path style="fill:#407BFF;" d="M380.086,168.005c-2.965,8.476-5.071,17.167-6.618,25.375c-1.128,6.005-1.944,11.753-2.557,16.974
				c-1.44,12.236-1.773,21.615-2.342,24.763c-6.081-0.816-28.996-3.9-41.49-5.586c-2.815-44.798,9.497-66.993,9.497-66.993
				s4.673-0.623,10.055-0.591c0.709,0,1.429,0.021,2.159,0.054c4.727,0.204,12.376,1.407,17.64,2.374
				c1.107,0.204,2.224,0.44,3.309,0.688C375.263,166.329,380.086,168.005,380.086,168.005z"/>
			<g>
				<path style="opacity:0.2;" d="M349.409,173.723c-7.595-0.97-10.978,1.198-11.607,4.008c-2.441,10.914,5.994,21.093,5.994,21.093
					s12.392-7.518,14.832-18.432C359.257,177.582,357.004,174.693,349.409,173.723z"/>
				<path style="fill:#FFFFFF;" d="M344.648,195.015c-2.082-3.202-5.7-10.031-4.155-16.941c0.285-1.272,3.225-2.222,8.295-1.574
					c5.07,0.648,7.435,2.275,7.15,3.547C354.393,186.958,348.007,192.508,344.648,195.015z"/>
			</g>
			<path style="opacity:0.2;" d="M373.469,193.379c-1.128,6.005-1.944,11.753-2.557,16.974l-5.608-12.951L373.469,193.379z"/>
			<path style="fill:#FFB573;" d="M367.359,144.278c-1.877,5.525-4.389,15.773-0.929,20.095c-3.315,2.605-7.971,4.575-14.327,3.577
				c-4.868-0.764-4.654-4.21-3.311-5.954c6.532-0.658,7.001-5.376,6.493-9.934L367.359,144.278z"/>
			<path style="opacity:0.2;" d="M362.436,147.455l-7.145,4.604c0.124,1.079,0.187,2.165,0.122,3.204
				c2.465-0.024,6.143-2.23,6.741-4.726C362.452,149.291,362.563,148.071,362.436,147.455z"/>
			<path style="fill:#263238;" d="M352.994,122.1c-6.065-0.494-8.165,14.106-4.382,16.906
				C352.394,141.807,364.348,123.024,352.994,122.1z"/>
			<path style="fill:#FFB573;" d="M369.185,135.829c-1.508,7.621-2.003,12.158-6.415,15.579c-6.638,5.146-15.648,0.348-16.448-7.569
				c-0.72-7.126,1.867-18.392,9.801-20.436C363.939,121.388,370.693,128.208,369.185,135.829z"/>
			<path style="fill:#263238;" d="M367.634,143.287c-3.759,2.339-6.92-21.059,3.048-17.982
				C386.868,130.301,372.099,140.508,367.634,143.287z"/>
			<path style="fill:#263238;" d="M367.647,129.632c-2.27-2.807-16.07-1.115-22.426-5.278c-6.356-4.163-2.328-13.339,9.311-11.862
				c-5.416,0.627-4.432,5.148-0.716,5.103c3.715-0.045,12.29-4.645,16.025-0.716c5.192,5.461,7.789,2.225,10.385,5.322
				C383.967,126.665,372.571,135.72,367.647,129.632z"/>
			<path style="fill:#FFB573;" d="M371.514,144.767c-1.328,1.62-3.281,2.475-4.996,2.617c-2.58,0.213-3.384-2.213-2.258-4.393
				c1.013-1.962,3.576-4.438,5.969-3.632C372.587,140.153,373.033,142.915,371.514,144.767z"/>
			<path style="fill:#263238;" d="M302.36,386.904l12.877,3.138c0,0,8.304-43.876,12.15-67.962
				c1.171-7.327,3.782-17.468,6.94-28.297c3.986-13.643,8.831-28.361,12.763-39.878c4.147-12.129,7.263-20.702,7.263-20.702
				l-27.277-3.674c0,0-20.777,63.706-23.119,87.48C301.517,341.729,302.36,386.904,302.36,386.904z"/>
			<path style="opacity:0.2;" d="M334.327,293.783c3.986-13.643,8.831-28.361,12.763-39.878l-2.449-6.306
				C337.324,255.238,333.886,280.118,334.327,293.783z"/>
			<path style="fill:#263238;" d="M341.792,231.512c0,0-1.349,67.065,0.49,89.926c2.014,25.034,20.78,76.22,20.78,76.22h14.336
				c0,0-9.565-46.849-12.5-71.161c-3.342-27.693,3.666-91.376,3.666-91.376L341.792,231.512z"/>
			<polygon style="fill:#407BFF;" points="361.346,397.968 378.227,397.968 378.227,392.925 359.356,392.596 			"/>
			<polygon style="fill:#407BFF;" points="300.669,386.809 316.013,390.556 317.223,385.599 300.136,381.149 			"/>
			<path style="fill:#263238;" d="M357.24,136.406c-0.084,0.626-0.484,1.088-0.893,1.033c-0.409-0.055-0.672-0.607-0.588-1.233
				c0.084-0.626,0.484-1.088,0.893-1.033C357.061,135.228,357.324,135.78,357.24,136.406z"/>
			<path style="fill:#263238;" d="M350.168,135.452c-0.084,0.626-0.484,1.088-0.893,1.033s-0.672-0.607-0.588-1.233
				c0.084-0.626,0.484-1.088,0.893-1.033C349.989,134.275,350.252,134.827,350.168,135.452z"/>
			<path style="fill:#ED893E;" d="M352.374,136.067c0,0-1.909,3.418-3.71,4.948c0.968,1.182,2.913,0.964,2.913,0.964
				L352.374,136.067z"/>
			<path style="fill:#263238;" d="M353.99,144.008c-0.262,0-0.535-0.017-0.822-0.056c-0.102-0.014-0.173-0.107-0.159-0.208
				c0.013-0.102,0.109-0.173,0.208-0.159c2.749,0.367,4.287-1.375,4.302-1.393c0.067-0.078,0.184-0.085,0.261-0.019
				c0.078,0.067,0.086,0.184,0.019,0.262C357.739,142.505,356.412,144.008,353.99,144.008z"/>
			<path style="fill:#263238;" d="M359.728,134.416c-0.129,0-0.255-0.068-0.323-0.189c-0.813-1.44-2.175-1.543-2.189-1.544
				c-0.204-0.013-0.36-0.189-0.346-0.393c0.013-0.204,0.19-0.359,0.394-0.346c0.072,0.004,1.779,0.133,2.787,1.92
				c0.101,0.178,0.038,0.404-0.141,0.505C359.853,134.4,359.79,134.416,359.728,134.416z"/>
			<path style="fill:#263238;" d="M347.448,132.609c-0.071,0-0.142-0.02-0.205-0.062c-0.171-0.113-0.217-0.344-0.104-0.514
				c1.136-1.712,2.842-1.703,2.919-1.713c0.205,0.002,0.369,0.169,0.367,0.374c-0.002,0.204-0.168,0.368-0.371,0.368
				c-0.071-0.003-1.386,0.007-2.298,1.381C347.686,132.551,347.568,132.609,347.448,132.609z"/>
			<path style="fill:#407BFF;" d="M366.062,408.707c-0.596,0-1.153-0.101-1.508-0.399c-0.281-0.236-0.41-0.565-0.383-0.98
				c0.019-0.309,0.183-0.455,0.318-0.524c0.864-0.446,3.391,1.106,3.676,1.285c0.063,0.04,0.096,0.113,0.085,0.187
				c-0.012,0.073-0.067,0.133-0.14,0.15C367.566,408.557,366.786,408.707,366.062,408.707z M364.899,407.086
				c-0.097,0-0.178,0.015-0.241,0.047c-0.05,0.026-0.108,0.073-0.117,0.218c-0.018,0.295,0.064,0.515,0.252,0.673
				c0.428,0.359,1.451,0.408,2.779,0.141C366.689,407.654,365.499,407.086,364.899,407.086z"/>
			<path style="fill:#407BFF;" d="M368.066,408.431c-0.03,0-0.061-0.007-0.088-0.022c-0.81-0.44-2.376-2.155-2.211-3.028
				c0.03-0.158,0.147-0.432,0.59-0.486c0.288-0.033,0.553,0.045,0.789,0.239c0.91,0.743,1.097,3.002,1.104,3.098
				c0.005,0.068-0.027,0.133-0.084,0.17C368.137,408.421,368.102,408.431,368.066,408.431z M366.487,405.258
				c-0.027,0-0.056,0.001-0.084,0.005c-0.241,0.029-0.262,0.14-0.271,0.187c-0.098,0.515,0.9,1.811,1.705,2.422
				c-0.091-0.659-0.341-1.976-0.924-2.452C366.779,405.311,366.639,405.258,366.487,405.258z"/>
			<path style="fill:#407BFF;" d="M302.941,398.124c-0.008,0.001-0.017,0.001-0.025,0.001c-1.284-0.055-3.537-0.288-4.19-1.229
				c-0.197-0.284-0.238-0.606-0.124-0.959c0.069-0.21,0.212-0.351,0.414-0.407c1.055-0.297,3.727,2.007,4.029,2.27
				c0.059,0.052,0.08,0.135,0.05,0.209C303.069,398.073,303.009,398.117,302.941,398.124z M299.187,395.874
				c-0.026,0.002-0.05,0.006-0.073,0.013c-0.082,0.023-0.13,0.072-0.16,0.165c-0.078,0.239-0.053,0.446,0.076,0.632
				c0.367,0.529,1.6,0.907,3.347,1.038C301.312,396.852,299.809,395.816,299.187,395.874z"/>
			<path style="fill:#407BFF;" d="M302.941,398.124c-0.047,0.004-0.094-0.009-0.131-0.038c-0.817-0.636-2.233-2.724-1.885-3.55
				c0.082-0.194,0.286-0.409,0.794-0.34c0.377,0.053,0.687,0.238,0.923,0.553c0.773,1.031,0.478,3.128,0.465,3.218
				c-0.01,0.065-0.053,0.12-0.114,0.145C302.976,398.118,302.958,398.122,302.941,398.124z M301.474,394.555
				c-0.162,0.015-0.195,0.094-0.208,0.124c-0.209,0.495,0.711,2.089,1.51,2.881c0.048-0.622,0.077-1.913-0.431-2.59
				c-0.177-0.236-0.399-0.369-0.678-0.408C301.588,394.552,301.525,394.551,301.474,394.555z"/>
		</g>
		<g>
			<path style="fill:#FFB573;" d="M384.422,177.115c-0.129,1.471-0.268,2.749-0.465,4.1c-0.185,1.335-0.386,2.66-0.611,3.984
				c-0.445,2.648-0.989,5.28-1.637,7.905c-0.656,2.622-1.364,5.242-2.261,7.84c-0.856,2.601-1.869,5.195-3.076,7.754l-0.935,1.917
				l-0.059,0.12l-0.125,0.235l-0.273,0.482c-0.196,0.31-0.404,0.619-0.628,0.902c-0.449,0.569-0.948,1.077-1.461,1.496
				c-1.031,0.859-2.086,1.39-3.065,1.768c-0.982,0.377-1.903,0.603-2.776,0.76c-3.47,0.584-6.355,0.268-9.167-0.117
				c-5.587-0.887-10.624-2.497-15.649-4.621l1.671-5.634c2.425,0.313,4.97,0.635,7.432,0.837c2.471,0.217,4.922,0.376,7.272,0.359
				c2.318,0.003,4.654-0.204,6.242-0.7c0.776-0.227,1.268-0.626,1.138-0.625c-0.02,0.002-0.082,0.032-0.139,0.089
				c-0.028,0.027-0.066,0.061-0.09,0.099c-0.018,0.017-0.033,0.035-0.046,0.055c-0.004,0.006-0.016,0.03-0.013,0.021l0.039-0.102
				l0.63-1.622c1.63-4.373,2.846-9.114,3.836-13.921c0.512-2.402,0.928-4.841,1.347-7.278c0.21-1.218,0.399-2.442,0.571-3.663
				l0.488-3.579L384.422,177.115z"/>
			<path style="fill:#407BFF;" d="M385.857,172.439c4.378,6.07-0.675,24.784-0.675,24.784l-20.544,0.656
				c0,0,1.673-12.334,4.708-21.517C372.651,166.358,380.554,165.087,385.857,172.439z"/>
			<path style="fill:#FFB573;" d="M344.859,206.233l-7.207-3.347l-0.045,9.998c0,0,6.768,1.487,7.956-2.011L344.859,206.233z"/>
			<polygon style="fill:#FFB573;" points="331.275,204.331 331.625,212.597 337.607,212.884 337.652,202.886 			"/>
		</g>
	</g>
</g>
<g id="Notebook">
	<g>
		<g>
			<g>
				<path style="fill:#263238;" d="M303.521,269.934H112.403c-5.066,0-9.504-4.145-9.861-9.212l-8.586-121.878
					c-0.357-5.066,3.496-9.212,8.563-9.212h191.118c5.067,0,9.504,4.145,9.861,9.212l8.586,121.878
					C312.441,265.789,308.588,269.934,303.521,269.934z"/>
				<path style="fill:#263238;" d="M358.194,369.399H142.84c-5.709,0-11.466-3.692-12.782-8.162l-24.941-84.76
					c-1.063-3.612,2.22-6.543,7.286-6.543h191.118c5.066,0,10.857,2.931,12.885,6.543l47.586,84.76
					C366.502,365.707,363.904,369.399,358.194,369.399z"/>
			</g>
			<g>
				<g>
					<path style="fill:#407BFF;" d="M305.824,269.934H114.706c-5.066,0-9.504-4.145-9.861-9.212L96.26,138.844
						c-0.357-5.066,3.496-9.212,8.563-9.212h191.118c5.066,0,9.504,4.145,9.861,9.212l8.586,121.878
						C314.744,265.789,310.891,269.934,305.824,269.934z"/>
				</g>
				<path style="fill:#FFFFFF;" d="M116.266,262.258c-2,0-3.751-1.636-3.892-3.636l-8.29-117.677c-0.141-2,1.38-3.636,3.38-3.636
					h186.917c2,0,3.751,1.636,3.892,3.636l8.29,117.677c0.141,2-1.38,3.636-3.38,3.636H116.266z"/>
				<path style="opacity:0.2;" d="M202.084,133.681c0.055,0.783-0.535,1.417-1.317,1.417s-1.462-0.635-1.517-1.417
					c-0.055-0.783,0.535-1.417,1.317-1.417S202.029,132.898,202.084,133.681z"/>
			</g>
			<g>
				<g>
					<path style="fill:#407BFF;" d="M360.497,369.399H145.143c-5.709,0-11.466-3.692-12.782-8.162l-24.941-84.76
						c-1.063-3.612,2.22-6.543,7.286-6.543h191.118c5.066,0,10.857,2.931,12.885,6.543l47.586,84.76
						C368.805,365.707,366.206,369.399,360.497,369.399z"/>
				</g>
				<path style="opacity:0.2;" d="M133.535,324.129c-2.138,0-4.287-1.315-4.774-2.917l-13.143-43.228
					c-0.436-1.435,0.855-2.605,2.869-2.605h188.215c2.014,0,4.307,1.17,5.098,2.605l23.846,43.228
					c0.884,1.602-0.14,2.917-2.278,2.917H133.535z"/>
				<path style="opacity:0.2;" d="M219.759,361.859c-1.302,0-2.695-0.838-3.094-1.859l-11.012-28.156
					c-0.373-0.955,0.349-1.734,1.604-1.734h57.508c1.255,0,2.644,0.779,3.087,1.734L280.933,360
					c0.475,1.021-0.202,1.859-1.504,1.859H219.759z"/>
			</g>
		</g>
		<g>
			<polygon style="fill:none;" points="198.01,167.118 202.399,173.872 206.788,180.627 222.376,180.627 225.782,173.882 
				229.188,167.137 224.798,160.382 220.409,153.627 204.821,153.627 201.415,160.373 			"/>
			<polygon style="fill:none;" points="229.455,166.97 245.042,166.97 248.448,160.225 251.854,153.48 247.464,146.725 
				243.075,139.97 227.487,139.97 224.081,146.715 220.676,153.46 225.065,160.214 			"/>
			<polygon style="fill:none;" points="256.09,208.258 252.684,215.003 249.278,221.748 253.667,228.503 258.057,235.258 
				273.645,235.258 277.051,228.513 280.456,221.768 276.067,215.013 271.678,208.258 			"/>
			<polygon style="fill:none;" points="254.111,180.942 250.706,187.688 247.3,194.433 251.689,201.188 256.078,207.943 
				271.666,207.943 275.072,201.197 278.478,194.452 274.088,187.698 269.699,180.942 			"/>
			<polygon style="fill:none;" points="245.321,167.118 249.71,173.872 254.1,180.627 269.688,180.627 273.093,173.882 
				276.499,167.137 272.11,160.382 267.72,153.627 252.132,153.627 248.727,160.373 			"/>
			<polygon style="fill:none;" points="152.398,194.285 155.804,187.54 159.209,180.794 154.82,174.04 150.431,167.285 
				134.843,167.285 131.437,174.03 128.031,180.775 132.421,187.53 136.81,194.285 			"/>
			<polygon style="fill:none;" points="150.698,167.118 155.087,173.872 159.477,180.627 175.064,180.627 178.47,173.882 
				181.876,167.137 177.486,160.382 173.097,153.627 157.509,153.627 154.104,160.373 			"/>
			<polygon style="fill:none;" points="140.768,248.915 156.355,248.915 159.761,242.17 163.167,235.425 158.778,228.671 
				154.388,221.915 138.8,221.915 135.395,228.661 131.989,235.406 136.378,242.161 			"/>
			<polygon style="fill:none;" points="182.143,166.97 197.73,166.97 201.136,160.225 204.542,153.48 200.153,146.725 
				195.763,139.97 180.176,139.97 176.77,146.715 173.364,153.46 177.753,160.214 			"/>
			<polygon style="fill:none;" points="154.377,221.601 157.782,214.855 161.188,208.11 156.799,201.355 152.409,194.6 
				136.822,194.6 133.416,201.346 130.01,208.091 134.399,214.845 138.789,221.601 			"/>
			<polygon style="fill:none;" points="206.8,180.942 203.394,187.688 199.988,194.433 204.377,201.188 208.767,207.943 
				224.355,207.943 227.76,201.197 231.166,194.452 226.777,187.698 222.387,180.942 			"/>
			<polygon style="fill:none;" points="228.039,201.346 224.634,208.091 229.023,214.845 233.412,221.601 248.999,221.601 
				252.405,214.855 255.811,208.11 251.422,201.355 247.033,194.6 231.445,194.6 			"/>
			<polygon style="fill:none;" points="199.721,194.6 184.133,194.6 180.727,201.346 177.322,208.091 181.711,214.845 
				186.101,221.601 201.689,221.601 205.094,214.855 208.499,208.11 204.11,201.355 			"/>
			<polygon style="fill:none;" points="150.419,166.97 153.825,160.225 157.23,153.48 152.841,146.725 148.452,139.97 
				132.864,139.97 129.458,146.715 126.053,153.46 130.442,160.214 134.831,166.97 			"/>
			<polygon style="fill:none;" points="185.833,221.768 181.444,215.013 177.055,208.258 161.467,208.258 158.061,215.003 
				154.656,221.748 159.045,228.503 163.434,235.258 179.022,235.258 182.428,228.513 			"/>
			<polygon style="fill:none;" points="253.833,180.794 249.443,174.04 245.054,167.285 229.466,167.285 226.061,174.03 
				222.655,180.775 227.044,187.53 231.434,194.285 247.021,194.285 250.427,187.54 			"/>
			<polygon style="fill:none;" points="249.011,221.915 233.423,221.915 230.018,228.661 226.612,235.406 231.001,242.161 
				235.391,248.915 250.979,248.915 254.384,242.17 257.79,235.425 253.4,228.671 			"/>
			<polygon style="fill:none;" points="201.7,221.915 186.112,221.915 182.706,228.661 179.301,235.406 183.69,242.161 
				188.079,248.915 203.667,248.915 207.072,242.17 210.478,235.425 206.089,228.671 			"/>
			<polygon style="fill:none;" points="233.145,221.768 228.755,215.013 224.366,208.258 208.778,208.258 205.373,215.003 
				201.967,221.748 206.356,228.503 210.746,235.258 226.333,235.258 229.739,228.513 			"/>
			<polygon style="fill:none;" points="197.742,167.285 182.154,167.285 178.749,174.03 175.343,180.775 179.732,187.53 
				184.122,194.285 199.71,194.285 203.115,187.54 206.521,180.794 202.132,174.04 			"/>
			<polygon style="fill:none;" points="159.488,180.942 156.083,187.688 152.677,194.433 157.066,201.188 161.456,207.943 
				177.043,207.943 180.449,201.197 183.855,194.452 179.465,187.698 175.076,180.942 			"/>
			<path style="fill:#E0E0E0;" d="M111.409,244.931l4.725-9.358h15.588l4.39,6.755l4.389,6.755l-3.406,6.745l-3.247,6.43h0.354
				l3.172-6.282l3.406-6.745h15.588l4.389,6.755l4.075,6.272h0.376l-4.184-6.439l-4.389-6.755l3.406-6.745l3.406-6.745h15.587
				l4.39,6.755l4.389,6.755l-3.405,6.745l-3.247,6.43h0.354l3.172-6.282l3.405-6.745h15.588l4.39,6.755l4.075,6.272h0.376
				l-4.184-6.439l-4.389-6.755l3.405-6.745l3.406-6.745h15.588l4.39,6.755l4.389,6.755l-3.406,6.745l-3.247,6.43h0.354l3.172-6.282
				l3.406-6.745h15.588l4.389,6.755l4.075,6.272h0.376l-4.185-6.439l-4.389-6.755l3.406-6.745l3.405-6.745h15.588l4.39,6.755
				l4.389,6.755l-3.406,6.745l-3.247,6.43h0.353l3.172-6.282l3.406-6.745h15.588l4.389,6.755l3.198,4.921
				c0.067-0.09,0.142-0.174,0.201-0.271l-3.131-4.818l-4.389-6.755l3.406-6.745l3.019-5.978l-0.043-0.615l-3.254,6.445l-3.406,6.745
				h-15.588l-4.389-6.755l-4.389-6.754l3.405-6.746l3.406-6.745h15.588l8.585,13.212l-0.046-0.649l-8.272-12.73l6.472-12.819
				l-0.043-0.614l-6.708,13.286h-15.588l-4.39-6.755l-4.389-6.754l3.406-6.745l3.406-6.746h15.587l8.646,13.306l-0.046-0.649
				l-8.333-12.824l6.52-12.913l-0.043-0.615l-6.755,13.38h-15.587l-4.39-6.755l-4.389-6.754l3.406-6.745l3.406-6.745h15.588
				l8.707,13.399l-0.045-0.65l-8.394-12.917l6.567-13.008l-0.043-0.613l-6.803,13.474h-15.588l-4.389-6.755l-4.389-6.754
				l3.405-6.745l3.406-6.745h15.588l4.389,6.755l4.379,6.738l-0.045-0.648l-4.066-6.258l-4.389-6.754l1.259-2.494h-0.353
				l-1.185,2.346h-15.588l-1.524-2.346h-0.375l1.633,2.513l-3.406,6.746l-3.405,6.745h-15.588l-4.39-6.755l-4.389-6.754l1.259-2.494
				h-0.354l-1.184,2.346h-15.588l-1.524-2.346h-0.376l1.633,2.513l-3.406,6.746l-3.406,6.745H204.81l-4.39-6.755l-4.389-6.754
				l1.259-2.494h-0.354l-1.184,2.346h-15.588l-1.524-2.346h-0.376l1.633,2.513l-3.405,6.746l-3.406,6.745h-15.588l-4.389-6.755
				l-4.389-6.754l1.259-2.494h-0.354l-1.185,2.346h-15.587l-1.524-2.346h-0.376l1.633,2.513l-3.406,6.746l-3.405,6.745h-15.588
				l-5.867-9.03l0.045,0.649l5.554,8.548l-4.346,8.607l0.044,0.614l4.581-9.074h15.588l4.389,6.755l4.389,6.754l-3.406,6.745
				l-3.406,6.746h-15.587l-4.39-6.755l-1.539-2.368l0.045,0.649l1.226,1.887l4.389,6.754l-3.406,6.746l-0.988,1.956l0.044,0.614
				l1.223-2.423l3.406-6.745h15.588l4.389,6.755l4.39,6.754l-3.406,6.745l-3.406,6.746h-15.588l-4.389-6.755l-1.6-2.462l0.046,0.649
				l1.287,1.981l4.389,6.754l-3.406,6.745l-1.036,2.051l0.043,0.614l1.271-2.518l3.406-6.745h15.588l4.389,6.755l4.389,6.754
				l-3.405,6.745l-3.406,6.745h-15.588l-6.051-9.311l0.046,0.649l5.738,8.83l-4.489,8.892L111.409,244.931z M179.022,235.258
				h-15.588l-4.389-6.755l-4.389-6.755l3.405-6.745l3.406-6.745h15.588l4.389,6.755l4.389,6.754l-3.405,6.745L179.022,235.258z
				 M247.021,194.285h-15.587l-4.39-6.755l-4.389-6.754l3.406-6.745l3.405-6.745h15.588l4.39,6.755l4.389,6.754l-3.406,6.746
				L247.021,194.285z M247.033,194.6l4.389,6.755l4.389,6.754l-3.406,6.745l-3.406,6.746h-15.587l-4.39-6.755l-4.389-6.754
				l3.405-6.745l3.406-6.746H247.033z M226.777,187.698l4.389,6.754l-3.406,6.745l-3.405,6.746h-15.588l-4.39-6.755l-4.389-6.754
				l3.406-6.746l3.406-6.745h15.587L226.777,187.698z M208.499,208.11l-3.405,6.745l-3.406,6.746h-15.588l-4.39-6.755l-4.389-6.754
				l3.406-6.745l3.406-6.746h15.588l4.389,6.755L208.499,208.11z M203.115,187.54l-3.406,6.745h-15.587l-4.39-6.755l-4.389-6.754
				l3.406-6.745l3.405-6.745h15.588l4.39,6.755l4.389,6.754L203.115,187.54z M179.465,187.698l4.389,6.754l-3.406,6.745
				l-3.406,6.746h-15.587l-4.39-6.755l-4.389-6.754l3.406-6.746l3.405-6.745h15.588L179.465,187.698z M207.072,242.17l-3.405,6.745
				h-15.588l-4.389-6.755l-4.389-6.754l3.406-6.746l3.406-6.745H201.7l4.389,6.755l4.389,6.754L207.072,242.17z M226.333,235.258
				h-15.587l-4.389-6.755l-4.389-6.755l3.406-6.745l3.405-6.745h15.588l4.389,6.755l4.389,6.754l-3.406,6.745L226.333,235.258z
				 M254.384,242.17l-3.406,6.745h-15.588l-4.389-6.755l-4.389-6.754l3.405-6.746l3.406-6.745h15.588l4.389,6.755l4.389,6.754
				L254.384,242.17z M276.067,215.013l4.389,6.754l-3.405,6.745l-3.406,6.745h-15.588l-4.39-6.755l-4.389-6.755l3.406-6.745
				l3.406-6.745h15.588L276.067,215.013z M274.088,187.698l4.389,6.754l-3.406,6.745l-3.406,6.746h-15.588l-4.389-6.755
				l-4.389-6.754l3.405-6.746l3.406-6.745h15.588L274.088,187.698z M252.132,153.627h15.588l4.39,6.755l4.389,6.754l-3.406,6.745
				l-3.406,6.746H254.1l-4.389-6.755l-4.389-6.754l3.405-6.745L252.132,153.627z M224.081,146.715l3.406-6.745h15.588l4.389,6.755
				l4.389,6.755l-3.405,6.745l-3.406,6.745h-15.588l-4.389-6.755l-4.39-6.754L224.081,146.715z M204.821,153.627h15.588l4.389,6.755
				l4.39,6.754l-3.406,6.745l-3.406,6.746h-15.588l-4.389-6.755l-4.389-6.754l3.405-6.745L204.821,153.627z M176.77,146.715
				l3.406-6.745h15.587l4.39,6.755l4.389,6.755l-3.406,6.745l-3.406,6.745h-15.587l-4.39-6.755l-4.389-6.754L176.77,146.715z
				 M157.509,153.627h15.587l4.39,6.755l4.389,6.754l-3.406,6.745l-3.405,6.746h-15.588l-4.39-6.755l-4.389-6.754l3.406-6.745
				L157.509,153.627z M130.442,160.214l-4.389-6.754l3.405-6.745l3.406-6.745h15.588l4.389,6.755l4.389,6.755l-3.406,6.745
				l-3.406,6.745h-15.588L130.442,160.214z M132.421,187.53l-4.39-6.754l3.406-6.745l3.406-6.745h15.588l4.389,6.755l4.389,6.754
				l-3.405,6.746l-3.406,6.745H136.81L132.421,187.53z M134.399,214.845l-4.389-6.754l3.406-6.745l3.406-6.746h15.587l4.39,6.755
				l4.389,6.754l-3.406,6.745l-3.405,6.746h-15.588L134.399,214.845z M135.395,228.661l3.406-6.745h15.588l4.39,6.755l4.389,6.754
				l-3.406,6.745l-3.406,6.745h-15.588l-4.389-6.755l-4.389-6.754L135.395,228.661z"/>
			<polygon style="fill:#E0E0E0;" points="117.896,262.258 111.989,253.167 112.035,253.816 117.52,262.258 			"/>
		</g>
		<g>
			<path style="fill:#407BFF;" d="M245.163,249.853h-69.178c-2.837,0-5.287-2.321-5.445-5.158l-2.65-47.583
				c-0.158-2.837,2.034-5.158,4.871-5.158h69.178c2.837,0,5.287,2.321,5.445,5.158l2.649,47.583
				C250.191,247.532,248,249.853,245.163,249.853z"/>
			<path style="opacity:0.2;" d="M172.761,191.954c-2.837,0-5.029,2.321-4.871,5.158l2.65,47.583
				c0.158,2.837,2.608,5.158,5.445,5.158h34.589l-3.224-57.899H172.761z"/>
			<path style="opacity:0.2;" d="M203.553,236.195l0.793-15.119c-2.452-1.55-4.033-4.171-4.193-7.038
				c-0.259-4.646,3.311-8.427,7.958-8.427c4.647,0,8.637,3.78,8.896,8.427c0.16,2.867-1.13,5.488-3.409,7.038l2.476,15.119H203.553z
				"/>
			<path style="fill:#263238;" d="M215.699,214.038c-0.219-3.932-3.584-7.119-7.516-7.119c-3.932,0-6.942,3.187-6.723,7.119
				c0.154,2.766,1.867,5.157,4.237,6.336l-0.761,14.513h9.608l-2.377-14.513C214.406,219.196,215.853,216.804,215.699,214.038z"/>
			<path style="fill:#407BFF;" d="M240.15,188.536h-9.153l-0.553-9.925c-0.732-13.144-12.021-23.837-25.165-23.837
				c-13.144,0-23.242,10.693-22.51,23.837l0.553,9.925h-9.153l-0.553-9.925c-1.013-18.191,12.963-32.991,31.154-32.991
				c18.191,0,33.815,14.8,34.828,32.991L240.15,188.536z"/>
		</g>
	</g>
</g>
</svg>
